<svg xmlns="http://www.w3.org/2000/svg" width="112" height="76" viewBox="0 0 112 76">
    <g fill="none" fill-rule="evenodd">
        <path fill="#F8A01B" d="M68.777 55.371V24.7c0-1.799-1.484-3.257-3.315-3.257H37.295c-1.83 0-3.314 1.458-3.314 3.257v30.671M32.35 74.914h-7.068c-.901 0-1.632-.729-1.632-1.628V42.343c0-.9.73-1.629 1.632-1.629h7.068c.9 0 1.63.73 1.63 1.629v30.943c0 .9-.73 1.628-1.63 1.628M77.476 74.914h-7.068c-.901 0-1.631-.729-1.631-1.628V42.343c0-.9.73-1.629 1.63-1.629h7.069c.9 0 1.63.73 1.63 1.629v30.943c0 .9-.73 1.628-1.63 1.628"/>
        <path fill="#F8A01B" d="M33.98 74.914h34.797V64.057H33.98z"/>
        <path fill="#000" d="M34.796 74.1h33.165v-9.229H34.796V74.1zm33.98 1.629H33.982a.815.815 0 0 1-.816-.815V64.057c0-.45.365-.814.816-.814h34.796c.45 0 .815.364.815.814v10.857c0 .45-.365.815-.815.815zM34.796 54.557h33.165v-2.171H34.796v2.171zm33.98 1.629H33.982a.815.815 0 0 1-.816-.815v-3.8c0-.45.365-.814.816-.814h34.796c.45 0 .815.364.815.814v3.8c0 .45-.365.815-.815.815z"/>
        <path fill="#F8A01B" d="M103.845 61.343h-19.03a1.358 1.358 0 1 1 0-2.714h19.03a1.358 1.358 0 1 1 0 2.714M17.398 74.914H6.524V66.38a3.412 3.412 0 0 1 3.414-3.409h4.046a3.412 3.412 0 0 1 3.414 3.409v8.534z"/>
        <path fill="#FFF" d="M21.458 17.1H2.464L5.42 1.086h13.084z"/>
        <path fill="#000" d="M87.138 74.371h14.385V62.43H87.138V74.37zM84.816 60.8a.544.544 0 0 1 0-1.086h19.029a.544.544 0 0 1 0 1.086h-19.03zM70.408 74.371a.816.816 0 0 1-.816-.814V42.614c0-.449.366-.814.816-.814h7.068c.45 0 .815.365.815.814v30.943a.816.816 0 0 1-.815.814h-7.068zm-45.126 0a.816.816 0 0 1-.816-.814V42.614c0-.449.366-.814.816-.814h7.068c.45 0 .815.365.815.814v30.943a.816.816 0 0 1-.815.814h-7.068zm9.514-18.728V24.97c0-1.346 1.121-2.442 2.499-2.442h9.466a5.168 5.168 0 0 0 5.122 4.523 5.168 5.168 0 0 0 5.122-4.523h8.457c1.378 0 2.5 1.096 2.5 2.442v48.586c0 .287.058.558.15.814H34.645c.091-.256.15-.527.15-.814V55.643zm20.56-33.114a3.535 3.535 0 0 1-3.473 2.895 3.536 3.536 0 0 1-3.474-2.895h6.947zm-3.473-4.163A3.538 3.538 0 0 1 55.27 20.9h-6.777a3.538 3.538 0 0 1 3.389-2.534zm-35.3 56.005H7.34v-7.72a2.6 2.6 0 0 1 2.598-2.594h4.046a2.6 2.6 0 0 1 2.599 2.594v7.72zM3.444 16.557L6.098 2.171h11.726l2.654 14.386H3.444zm107.74 57.814h-8.03V62.43h.69c1.2 0 2.175-.974 2.175-2.172a2.175 2.175 0 0 0-2.174-2.171h-19.03c-1.199 0-2.174.974-2.174 2.171 0 1.198.975 2.172 2.175 2.172h.69V74.37h-5.734c.092-.256.15-.527.15-.814V42.614a2.448 2.448 0 0 0-2.446-2.443h-7.068c-.287 0-.56.06-.816.15v-15.35c0-2.245-1.852-4.071-4.13-4.071H56.95a5.17 5.17 0 0 0-5.066-4.162 5.17 5.17 0 0 0-5.067 4.162h-9.521c-2.278 0-4.13 1.826-4.13 4.071v15.35a2.425 2.425 0 0 0-.815-.15h-7.068a2.448 2.448 0 0 0-2.447 2.443v30.943c0 .287.059.558.15.814h-4.771v-7.72a4.231 4.231 0 0 0-4.23-4.222h-1.207V18.186h8.68a.815.815 0 0 0 .803-.962L19.306 1.21a.816.816 0 0 0-.803-.667H5.42c-.394 0-.73.28-.803.667L1.663 17.224a.814.814 0 0 0 .802.962h8.68v44.243H9.939a4.231 4.231 0 0 0-4.23 4.222v7.72H.817a.815.815 0 1 0 0 1.629h110.368a.815.815 0 1 0 0-1.629z"/>
        <path fill="#F8A01B" d="M74.214 29.043h36.97V.814h-36.97z"/>
        <path fill="#FFF" d="M77.204 26.057h30.99V3.8h-30.99z"/>
        <path fill="#000" d="M75.03 28.229h35.339v-26.6h-35.34v26.6zM111.183 0c.45 0 .816.364.816.814v28.229c0 .45-.365.814-.816.814h-36.97a.815.815 0 0 1-.816-.814V.814c0-.45.365-.814.816-.814h36.97zM78.02 25.243h29.36V4.614h-29.36v20.629zm-.815 1.628a.815.815 0 0 1-.816-.814V3.8c0-.45.366-.814.816-.814h30.99c.45 0 .816.364.816.814v22.257c0 .45-.366.814-.816.814h-30.99zm5.79-4.976h8.477l-4.238-7.328-4.238 7.328zm4.945-9.364l5.65 9.771a.814.814 0 0 1-.706 1.221h-11.3a.814.814 0 0 1-.706-1.22l5.65-9.772a.816.816 0 0 1 1.412 0zm12.342 2.39A3.533 3.533 0 0 0 103 11.49a3.535 3.535 0 0 0-3.534-3.529 3.535 3.535 0 0 0-3.534 3.529 3.533 3.533 0 0 0 2.718 3.43v-2.525a.815.815 0 0 1 1.631 0v2.524zm-.815-8.588a5.167 5.167 0 0 1 5.165 5.158c0 2.565-1.889 4.694-4.35 5.086v6.133a.815.815 0 0 1-1.63 0v-6.133c-2.461-.392-4.35-2.52-4.35-5.086a5.167 5.167 0 0 1 5.165-5.158zM45.262 32.3c0 .75-.608 1.357-1.36 1.357a1.358 1.358 0 1 1 1.36-1.357M60.214 32.3c0 .75-.609 1.357-1.36 1.357a1.358 1.358 0 1 1 1.36-1.357M45.262 45.329c0 .75-.608 1.357-1.36 1.357a1.358 1.358 0 1 1 1.36-1.357M60.214 45.329c0 .75-.609 1.357-1.36 1.357a1.358 1.358 0 1 1 1.36-1.357"/>
        <path fill="#F8A01B" d="M33.98 65.691h34.797v-10.32H33.98z"/>
        <path fill="#000" d="M34.931 64.804h32.89v-8.545H34.93v8.545zm33.775 1.775h-34.66a.887.887 0 0 1-.885-.888v-10.32c0-.49.396-.887.885-.887h34.66c.49 0 .886.397.886.887v10.32c0 .49-.396.888-.886.888z"/>
        <path fill="#F8A01B" d="M33.98 58.629h34.797V55.37H33.98z"/>
        <path fill="#000" d="M34.796 57.814h33.165v-1.628H34.796v1.628zm33.98 1.629H33.982a.815.815 0 0 1-.816-.814V55.37c0-.45.365-.814.816-.814h34.796c.45 0 .815.364.815.814v3.258c0 .45-.365.814-.815.814z"/>
        <path fill="#FFF" d="M63.4 48.652V33.095c0-1.522-2.01-4.609-5.163-4.609H46.19c-2.07 0-5.827 1.394-5.827 6.33v15.483s-3.595-.447-3.595 2.22c0 2.668 2.327 2.669 4.063 2.669h15.063c.905 0 1.774-1.594 2.578-1.594.807 0 1.549 1.594 2.2 1.594H63.4s3.664.128 3.595-2.692c-.069-2.82-3.595-2.221-3.595-2.221v-1.623z"/>
        <path fill="#FFF" d="M46.002 54.576V68.04c0 1.371.682 3.513 2.839 3.513 2.156 0 2.837-1.748 2.837-3.558V49.487l-5.676 5.09zM55.738 21.624a3.852 3.852 0 0 1-3.856 3.849 3.852 3.852 0 0 1-3.855-3.85 3.852 3.852 0 0 1 3.855-3.848 3.852 3.852 0 0 1 3.856 3.849"/>
        <path fill="#FFF" d="M38.385 62.162a2.755 2.755 0 0 1-1.952-4.708l12.688-12.66a2.766 2.766 0 0 1 3.891-.014l4.807 4.73a2.755 2.755 0 0 1 .028 3.9 2.765 2.765 0 0 1-3.906.029l-2.855-2.81-10.749 10.727a2.754 2.754 0 0 1-1.952.806"/>
        <path fill="#000" d="M53.68 54.782H52.3a.815.815 0 0 1-.815-.814v-1.426a.815.815 0 0 1 1.402-.566l1.379 1.426a.814.814 0 0 1-.587 1.38"/>
        <path fill="#000" d="M64.772 53.903h-3.595a1.41 1.41 0 0 1-1.41-1.407V51.33c.032-.221.054-.445.054-.674V35.298a.815.815 0 0 0-1.631 0v12.504a.808.808 0 0 0-.053.282v.595l-4.552-4.48a3.592 3.592 0 0 0-5.04.018l-2.888 2.882v-11.8a.815.815 0 0 0-1.631 0v13.427L38.83 53.91a1.405 1.405 0 0 1-1.246-1.39 1.41 1.41 0 0 1 1.409-1.407h1.37c.45 0 .815-.365.815-.814V34.156c0-2.743 2.202-4.893 5.012-4.893h11.383c2.81 0 5.012 2.15 5.012 4.893v16.119c0 .45.364.814.815.814h1.37a1.41 1.41 0 0 1 1.41 1.407 1.41 1.41 0 0 1-1.41 1.407zm-7.506-1.064c-.365.37-.852.575-1.372.579h-.014c-.515 0-.999-.198-1.367-.56l-2.854-2.81a.817.817 0 0 0-1.149.005L39.76 60.78c-.734.733-2.018.733-2.751-.001a1.944 1.944 0 0 1 0-2.749l8.407-8.39h.002l4.279-4.27c.38-.378.878-.567 1.377-.567.494 0 .988.185 1.366.557l4.807 4.73c.763.752.773 1.985.019 2.749zm-4.772.981v-.662l.672.662h-.672zm-1.63 14.899a2.023 2.023 0 0 1-4.046 0V56.186a.836.836 0 0 0-.014-.133l4.06-4.05v16.716zM64.771 49.46h-.555V34.156c0-3.656-2.918-6.521-6.643-6.521H46.191c-3.725 0-6.643 2.865-6.643 6.521v15.328h-.554a3.041 3.041 0 0 0-3.04 3.035c0 1.152.646 2.156 1.595 2.67l-1.693 1.69a3.574 3.574 0 0 0 2.529 6.098c.956 0 1.854-.372 2.529-1.045l4.273-4.265V68.72a3.655 3.655 0 0 0 3.654 3.648 3.655 3.655 0 0 0 3.653-3.648v-13.27h2.522a4.793 4.793 0 0 0 3.489-1.507 3.042 3.042 0 0 0 2.672 1.59h3.595a3.04 3.04 0 0 0 3.04-3.036 3.041 3.041 0 0 0-3.04-3.036z"/>
    </g>
</svg>
