<svg xmlns="http://www.w3.org/2000/svg" width="116" height="79" viewBox="0 0 116 79">
    <g fill="none" fill-rule="evenodd">
        <path fill="#F8A01B" d="M81.856 50.876H23.664V34.82a2.255 2.255 0 0 1 2.253-2.257h53.687a2.255 2.255 0 0 1 2.252 2.257v16.057z"/>
        <path fill="#000" d="M24.509 50.03h56.503V34.819a1.41 1.41 0 0 0-1.408-1.41H25.917a1.41 1.41 0 0 0-1.408 1.41v15.21zm57.347 1.693H23.664a.846.846 0 0 1-.844-.847V34.82a3.104 3.104 0 0 1 3.097-3.104h53.687A3.104 3.104 0 0 1 82.7 34.82v16.057a.846.846 0 0 1-.845.847z"/>
        <path fill="#FFF" d="M26.597 49.984v-7.861c0-3.276 2.635-5.932 6.035-5.932h11.79c3.399 0 6.034 2.656 6.034 5.932v7.837"/>
        <path fill="#000" d="M26.597 50.83a.846.846 0 0 1-.845-.846v-7.861c0-3.801 3.022-6.778 6.88-6.778h11.79c3.857 0 6.879 2.977 6.879 6.778v7.837a.846.846 0 1 1-1.69 0v-7.837c0-2.851-2.28-5.085-5.19-5.085h-11.79c-2.91 0-5.19 2.234-5.19 5.085v7.861a.846.846 0 0 1-.844.847"/>
        <path fill="#FFF" d="M43.031 29.096a4.51 4.51 0 0 1-4.504 4.514 4.51 4.51 0 0 1-4.505-4.514 4.51 4.51 0 0 1 4.505-4.514 4.51 4.51 0 0 1 4.504 4.514"/>
        <path fill="#000" d="M38.527 25.428a3.668 3.668 0 0 0 0 7.336 3.668 3.668 0 0 0 0-7.336m0 9.029c-2.95 0-5.35-2.405-5.35-5.361s2.4-5.36 5.35-5.36c2.95 0 5.35 2.404 5.35 5.36 0 2.956-2.4 5.36-5.35 5.36"/>
        <path fill="#FFF" d="M48.164 46.026l-9.637 3.21V37.348l9.637-3.21z"/>
        <path fill="#000" d="M39.183 37.823v10.501l8.325-2.772V35.05l-8.325 2.772zm-.656 12.07a.658.658 0 0 1-.656-.658V37.35c0-.284.18-.535.45-.624l9.636-3.21a.658.658 0 0 1 .863.625v11.886c0 .283-.181.535-.45.624l-9.637 3.21a.653.653 0 0 1-.206.033z"/>
        <path fill="#FFF" d="M28.889 46.026l9.637 3.21V37.348l-9.637-3.21z"/>
        <path fill="#000" d="M29.545 45.552l8.326 2.772v-10.5l-8.326-2.773v10.5zm8.982 4.34c-.07 0-.14-.01-.207-.033l-9.638-3.21a.656.656 0 0 1-.45-.623V34.14a.653.653 0 0 1 .863-.624l9.638 3.21c.269.09.45.34.45.624v11.886a.66.66 0 0 1-.656.658z"/>
        <path fill="#FFF" d="M28.876 55.686c-.61 0-1.221-.219-1.707-.663a2.543 2.543 0 0 1-.165-3.587l5.778-6.35a2.53 2.53 0 0 1 3.58-.165 2.543 2.543 0 0 1 .165 3.587l-5.778 6.35c-.5.55-1.186.828-1.873.828"/>
        <path fill="#000" d="M34.655 45.105c-.458 0-.916.185-1.249.552l-5.778 6.349a1.698 1.698 0 0 0 .11 2.392c.663.605 1.783.552 2.387-.11l5.778-6.35a1.698 1.698 0 0 0-.11-2.392 1.684 1.684 0 0 0-1.138-.44m-5.78 11.427a3.37 3.37 0 0 1-2.276-.884 3.395 3.395 0 0 1-.22-4.783l5.779-6.35a3.38 3.38 0 0 1 4.773-.22 3.396 3.396 0 0 1 .22 4.783l-5.778 6.35a3.382 3.382 0 0 1-2.497 1.104"/>
        <path fill="#FFF" d="M47.986 55.568a2.528 2.528 0 0 1-2.016-.998l-4.747-6.232a2.543 2.543 0 0 1 .477-3.56 2.531 2.531 0 0 1 3.552.479L50 51.489a2.543 2.543 0 0 1-.477 3.559c-.46.35-1 .52-1.536.52"/>
        <path fill="#000" d="M43.236 45.105a1.686 1.686 0 0 0-1.673 1.467c-.06.449.058.893.332 1.252l4.747 6.232c.548.72 1.646.87 2.368.319.358-.275.59-.673.649-1.12a1.68 1.68 0 0 0-.332-1.253l-4.746-6.232a1.686 1.686 0 0 0-1.345-.665m4.75 11.31a3.354 3.354 0 0 1-2.687-1.331l-4.747-6.232a3.395 3.395 0 0 1 .635-4.747 3.38 3.38 0 0 1 4.736.638l4.747 6.232c.548.719.783 1.608.663 2.504a3.363 3.363 0 0 1-1.299 2.241 3.346 3.346 0 0 1-2.048.695"/>
        <path fill="#FFF" d="M77.547 50.95H54.593v-9.202a2.255 2.255 0 0 1 2.253-2.257h18.448a2.255 2.255 0 0 1 2.253 2.257v9.202z"/>
        <path fill="#F8A01B" d="M23.665 77.871h3.746v-4.354h-3.746zM78.11 77.871h3.746v-4.354H78.11zM93.497 66.699h18.345v-7.037H93.497zM93.497 73.736h18.345v-7.037H93.497z"/>
        <path fill="#FFF" d="M106.024 59.662h-6.71v-3.578c0-.623.505-1.128 1.127-1.128h4.457c.622 0 1.126.505 1.126 1.128v3.578z"/>
        <path fill="#000" d="M104.915 62.334h-4.492a.846.846 0 0 0 0 1.693h4.492a.846.846 0 0 0 0-1.693M100.423 71.064h4.492a.846.846 0 0 0 0-1.693h-4.492a.846.846 0 0 0 0 1.693"/>
        <path fill="#000" d="M110.997 65.852H94.341v-5.344H110.997v5.344zM94.341 72.89h16.656v-5.344H94.341v5.344zm5.818-16.805c0-.155.127-.282.282-.282h4.457c.155 0 .281.127.281.282v2.732h-5.02v-2.732zm-2.335-7.522l1.512-8.224h6.667l1.511 8.224h-9.69zm14.018 10.254h-4.973v-2.732a1.975 1.975 0 0 0-1.971-1.975h-1.384v-3.854h5.015a.844.844 0 0 0 .831-1l-1.823-9.917a.845.845 0 0 0-.831-.693h-8.074a.846.846 0 0 0-.83.693l-1.824 9.917a.849.849 0 0 0 .831 1h5.015v3.854h-1.383c-1.087 0-1.971.886-1.971 1.975v2.732h-4.973a.846.846 0 0 0-.845.846v18.21a.846.846 0 1 0 1.69 0v-3.29h16.655v3.29a.846.846 0 1 0 1.69 0v-18.21a.846.846 0 0 0-.845-.846z"/>
        <path fill="#F8A01B" d="M3.993 77.871h8.031V60.6H3.993z"/>
        <path fill="#000" d="M34.459 19.186H71.06V1.693H34.459v17.493zm37.446 1.693h-38.29a.846.846 0 0 1-.846-.847V.846c0-.467.379-.846.845-.846h38.291c.467 0 .845.38.845.846v19.186a.846.846 0 0 1-.845.847zm-34.35-4.797h30.409V4.796H37.556v11.286zm31.253 1.693H36.711a.846.846 0 0 1-.844-.846V3.95c0-.467.378-.846.844-.846h32.097c.467 0 .845.379.845.846v12.979a.846.846 0 0 1-.845.846zM49.43 13.777h6.662V7.101H49.43v6.676zm7.225 1.129h-7.788a.564.564 0 0 1-.563-.565V6.537c0-.312.252-.565.563-.565h7.788c.312 0 .563.253.563.565v7.804a.563.563 0 0 1-.563.565zm3.794-3.208h5.022V9.18h-5.022v2.52zm5.585 1.129h-6.148a.563.563 0 0 1-.563-.565V8.616c0-.313.252-.565.563-.565h6.148c.311 0 .563.252.563.565v3.646a.564.564 0 0 1-.563.565zM40.05 11.698h5.022V9.18H40.05v2.52zm5.585 1.129h-6.148a.563.563 0 0 1-.563-.565V8.616c0-.313.252-.565.563-.565h6.148c.312 0 .563.252.563.565v3.646a.563.563 0 0 1-.563.565z"/>
        <path fill="#FFF" d="M87.91 73.443h-70.3V53.208a2.255 2.255 0 0 1 2.253-2.257h65.795a2.255 2.255 0 0 1 2.252 2.257v20.235z"/>
        <path fill="#F8A01B" d="M17.61 61.077h70.3v-4.455h-70.3z"/>
        <path fill="#000" d="M18.455 72.596h68.61V61.924h-68.61v10.672zm60.5 4.429h2.056v-2.661h-2.057v2.661zm-50.7 0h49.01v-2.736h-49.01v2.736zm-3.746 0h2.057v-2.661H24.51v2.661zm-6.054-16.794h68.61v-2.763h-68.61v2.763zm0-7.023c0-.779.632-1.411 1.407-1.411h65.795a1.41 1.41 0 0 1 1.408 1.41v2.568h-68.61v-2.567zm36.983-11.46c0-.778.631-1.41 1.408-1.41h18.448a1.41 1.41 0 0 1 1.408 1.41v8.356H55.438v-8.356zm-50.6 21.404h6.341v-1.706H4.838v1.706zm0 13.873h6.341v-12.18H4.838v12.18zm110.317 0H82.701v-2.736h5.209c.466 0 .845-.379.845-.846V53.208c0-1.711-1.39-3.104-3.097-3.104H78.39v-8.356c0-1.71-1.39-3.103-3.097-3.103H56.846a3.104 3.104 0 0 0-3.097 3.103v8.356H19.862a3.104 3.104 0 0 0-3.097 3.104v20.235c0 .467.379.846.845.846h5.21v2.736h-9.951V60.6a.845.845 0 0 0-.845-.847H3.993a.845.845 0 0 0-.845.847v16.425H.845a.846.846 0 0 0 0 1.693H115.156a.846.846 0 0 0 0-1.693z"/>
    </g>
</svg>
