<svg xmlns="http://www.w3.org/2000/svg" width="120" height="76" viewBox="0 0 120 76">
    <g fill="none" fill-rule="evenodd">
        <path fill="#000" d="M58.033 40.122c0 .56-.46 1.016-1.027 1.016h-9.15a1.023 1.023 0 0 1-1.028-1.016v-2.543h11.206v2.543zm2.816-2.57h-1.333v-.706a.737.737 0 0 0-.742-.734h-5.4l2.275-9.272a.733.733 0 0 0-.546-.885.746.746 0 0 0-.895.54l-2.36 9.617h-5.762a.737.737 0 0 0-.74.734v.705H43.91a.737.737 0 0 0-.74.733c0 .406.33.734.74.734h1.435v1.104c0 1.369 1.126 2.483 2.51 2.483h9.15c1.385 0 2.51-1.114 2.51-2.483v-1.104h1.334c.41 0 .74-.328.74-.734a.737.737 0 0 0-.74-.733z"/>
        <path fill="#F8A01B" d="M14.942 47.25h90.116V43.82H14.942z"/>
        <path fill="#000" d="M44.977 73.821h29.67V48.107h-29.67v25.714zm30.537 1.715H44.11a.862.862 0 0 1-.866-.857v-27.43c0-.472.388-.856.866-.856h31.404c.479 0 .866.384.866.857v27.429a.862.862 0 0 1-.866.857z"/>
        <path fill="#F8A01B" d="M48.48 70.945h22.665v-10.58H48.48z"/>
        <path fill="#000" d="M71.434 57.44H48.19a.862.862 0 0 1-.866-.856c0-.473.388-.857.866-.857h23.243c.478 0 .866.384.866.857a.862.862 0 0 1-.866.857M48.985 49.254c-.588 0-1.063.471-1.063 1.052 0 .58.475 1.052 1.063 1.052.587 0 1.063-.472 1.063-1.052 0-.58-.476-1.052-1.063-1.052M56.203 49.254c-.587 0-1.063.471-1.063 1.052 0 .58.476 1.052 1.063 1.052.588 0 1.063-.472 1.063-1.052 0-.58-.475-1.052-1.063-1.052M63.421 49.254c-.587 0-1.063.471-1.063 1.052 0 .58.476 1.052 1.063 1.052.588 0 1.064-.472 1.064-1.052 0-.58-.476-1.052-1.064-1.052M70.64 49.254c-.588 0-1.064.471-1.064 1.052 0 .58.476 1.052 1.064 1.052.587 0 1.063-.472 1.063-1.052 0-.58-.476-1.052-1.063-1.052M84.646 52.634H91.2a.862.862 0 0 0 .866-.857.862.862 0 0 0-.866-.857h-6.554a.862.862 0 0 0-.867.857c0 .473.388.857.867.857M84.646 61.821H91.2a.862.862 0 0 0 .866-.857.862.862 0 0 0-.866-.857h-6.554a.862.862 0 0 0-.867.857c0 .473.388.857.867.857M84.646 70.834H91.2a.862.862 0 0 0 .866-.857.862.862 0 0 0-.866-.858h-6.554a.862.862 0 0 0-.867.858c0 .473.388.857.867.857M49.346 70.088h20.932v-8.865H49.346v8.865zm22.097-10.58H48.181a.565.565 0 0 0-.568.563V71.24c0 .31.254.562.568.562h23.262a.565.565 0 0 0 .568-.562V60.07a.565.565 0 0 0-.568-.562z"/>
        <path fill="#000" d="M75.514 46.393H15.808v-1.714h88.384v1.714H75.514zm23.95 9.054H76.38v-7.34h23.084v7.34zM76.38 64.592h23.084v-7.297H76.38v7.297zm0 9.055h23.084v-7.298H76.38v7.298zM44.977 52.496h29.67v-4.389h-29.67v4.389zm29.67 3.94v17.386h-29.67V54.21h29.67v2.094c0 .023.006.044.007.067-.001.022-.007.043-.007.066zm-31.403-3.083v2.024H20.16v-7.27h23.084v5.246zM32.28 73.82h10.964v-16.73H32.28v16.73zm-12.12 0h10.964v-16.73H20.16v16.73zm98.473 0h-17.436V56.437c0-.023-.005-.044-.007-.066.002-.023.007-.044.007-.067v-8.197h3.861a.862.862 0 0 0 .867-.857V43.82a.862.862 0 0 0-.867-.857h-41.06v-.643a.574.574 0 0 0-.577-.571.574.574 0 0 0-.578.571v.643h-6.062v-.643a.574.574 0 0 0-.578-.571.574.574 0 0 0-.578.571v.643h-6.063v-.643a.574.574 0 0 0-.578-.571.574.574 0 0 0-.577.571v.643H14.942a.862.862 0 0 0-.867.857v3.429c0 .473.388.857.867.857h3.485v25.714H1.367a.862.862 0 0 0-.867.858c0 .473.388.857.867.857h117.266a.862.862 0 0 0 .867-.857.862.862 0 0 0-.867-.858z"/>
        <path fill="#000" d="M29.17 68.122a.862.862 0 0 0 .867-.857v-3.06a.862.862 0 0 0-.867-.857.862.862 0 0 0-.866.858v3.059c0 .473.388.857.866.857M34.247 68.122a.862.862 0 0 0 .867-.857v-3.06a.862.862 0 0 0-.867-.857.862.862 0 0 0-.866.858v3.059c0 .473.388.857.866.857M28.268 52.564h6.554a.862.862 0 0 0 .867-.857.862.862 0 0 0-.867-.857h-6.554a.862.862 0 0 0-.867.857c0 .473.389.857.867.857"/>
        <path fill="#F8A01B" d="M55.118 9.015h9.764V6.03h-9.764z"/>
        <path fill="#000" d="M51.017 14.973l4.468-5.101h9.066l4.458 5.1H51.017zm4.968-9.8h8.03V1.714h-8.03v3.46zm0 2.985h8.03v-1.27h-8.03v1.27zM71.56 15.27l-5.812-6.648V.857A.862.862 0 0 0 64.882 0h-9.764a.862.862 0 0 0-.867.857v7.806l-5.786 6.606a.848.848 0 0 0-.133.917.867.867 0 0 0 .788.5h21.784c.34 0 .647-.195.788-.5a.851.851 0 0 0-.132-.917z"/>
        <path fill="#F8A01B" d="M77.287 23.651h23.043V.857H77.287z"/>
        <path fill="#000" d="M89.386 22.794h10.078V1.714H89.386v21.08zm-11.232 0h10.077V1.714H78.154v21.08zM100.33 0H77.288a.862.862 0 0 0-.867.857v22.794c0 .473.388.857.867.857h23.042a.862.862 0 0 0 .867-.857V.857A.861.861 0 0 0 100.33 0z"/>
        <path fill="#000" d="M86.27 14.641a.862.862 0 0 0 .867-.857v-3.06a.862.862 0 0 0-.866-.857.862.862 0 0 0-.867.858v3.059c0 .473.388.857.867.857M91.347 14.641a.862.862 0 0 0 .867-.857v-3.06a.862.862 0 0 0-.867-.857.862.862 0 0 0-.866.858v3.059c0 .473.388.857.866.857"/>
        <path fill="#F8A01B" d="M19.294 23.651h23.043V.857H19.294z"/>
        <path fill="#000" d="M31.393 22.794H41.47V1.714H31.393v21.08zm-11.232 0h10.077V1.714H20.16v21.08zM42.337 0c.478 0 .866.384.866.857v22.794a.862.862 0 0 1-.866.857H19.294a.862.862 0 0 1-.867-.857V.857c0-.473.388-.857.867-.857h23.043zm-5.798 38.984v-1.759a.372.372 0 0 0-.373-.37h-.537a.372.372 0 0 0-.374.37v1.76c0 .203.168.368.374.368h.537a.372.372 0 0 0 .373-.369zm-5.077 0v-1.759a.372.372 0 0 0-.374-.37h-.536a.372.372 0 0 0-.374.37v1.76c0 .203.167.368.374.368h.536a.372.372 0 0 0 .374-.369zm-5.087 0v-1.759a.372.372 0 0 0-.373-.37h-.537a.372.372 0 0 0-.373.37v1.76c0 .203.168.368.373.368h.537a.372.372 0 0 0 .373-.369zM42.337 28.49c.478 0 .866.384.866.858a.862.862 0 0 1-.866.857h-5.862v5.54a1.52 1.52 0 0 1 1.219 1.481v1.76c0 .833-.686 1.511-1.528 1.511h-.537c-.843 0-1.53-.678-1.53-1.512v-1.759c0-.729.525-1.338 1.22-1.48v-5.541h-3.922v5.54a1.52 1.52 0 0 1 1.22 1.481v1.76c0 .833-.686 1.511-1.53 1.511h-.535c-.843 0-1.53-.678-1.53-1.512v-1.759c0-.729.525-1.338 1.22-1.48v-5.541h-3.93v5.54a1.519 1.519 0 0 1 1.219 1.481v1.76c0 .833-.686 1.511-1.529 1.511h-.537a1.522 1.522 0 0 1-1.528-1.512v-1.759c0-.729.524-1.339 1.22-1.48v-5.541h-5.863a.862.862 0 0 1-.867-.857c0-.474.388-.858.867-.858h23.043z"/>
        <path fill="#000" d="M28.276 14.641a.862.862 0 0 0 .867-.857v-3.06a.862.862 0 0 0-.867-.857.862.862 0 0 0-.866.858v3.059c0 .473.388.857.866.857M33.354 14.641a.862.862 0 0 0 .866-.857v-3.06a.862.862 0 0 0-.866-.857.862.862 0 0 0-.867.858v3.059c0 .473.388.857.867.857"/>
        <path fill="#FFF" d="M80.046 17.718c2.552 0 4.621-2.047 4.621-4.572s-2.069-4.571-4.621-4.571c-2.553 0-4.622 2.046-4.622 4.571s2.07 4.572 4.622 4.572"/>
        <path fill="#000" d="M80.046 9.401c-2.088 0-3.786 1.68-3.786 3.745 0 2.065 1.698 3.745 3.786 3.745 2.087 0 3.786-1.68 3.786-3.745 0-2.065-1.7-3.745-3.786-3.745m0 9.143c-3.01 0-5.457-2.421-5.457-5.398 0-2.976 2.448-5.398 5.457-5.398s5.456 2.422 5.456 5.398c0 2.977-2.447 5.398-5.456 5.398"/>
        <path fill="#FFF" d="M84.322 20.289h-9.13c-1.5 0-2.656.286-3.628 1.039l-8.193 8.104h-9.32c-1.436 0-2.6 1.151-2.6 2.571 0 1.42 1.164 2.572 2.6 2.572h10.398c.689 0 1.35-.271 1.837-.753l4.517-4.468v18.078l.006 23.816c0 1.795 1.47 3.249 3.285 3.249 1.814 0 3.284-1.454 3.284-3.249V50.126h4.765v21.122c0 1.795 1.47 3.249 3.283 3.249 1.815 0 3.285-1.454 3.285-3.249V24.63c0-2.398-1.965-4.341-4.389-4.341"/>
        <path fill="#000" d="M77.378 49.3h4.764a.83.83 0 0 1 .836.826v21.122c0 1.336 1.098 2.422 2.448 2.422 1.35 0 2.45-1.086 2.45-2.422V24.63c0-1.938-1.595-3.514-3.554-3.514h-9.13c-1.36 0-2.31.257-3.074.834l-8.156 8.067a.84.84 0 0 1-.59.241H54.05c-.972 0-1.764.783-1.764 1.745 0 .962.792 1.745 1.764 1.745h10.398c.472 0 .914-.181 1.247-.51l4.517-4.469a.84.84 0 0 1 .91-.18c.313.129.516.43.516.765l.007 41.894c0 1.336 1.1 2.422 2.449 2.422 1.35 0 2.449-1.086 2.449-2.422V50.126a.83.83 0 0 1 .835-.826m8.048 26.024c-2.271 0-4.119-1.828-4.119-4.076V50.953h-3.094v20.295c0 2.248-1.847 4.076-4.12 4.076-2.27 0-4.119-1.828-4.119-4.076l-.007-39.899-3.09 3.057a3.426 3.426 0 0 1-2.429.995H54.05c-1.894 0-3.434-1.524-3.434-3.398s1.54-3.398 3.434-3.398h8.975l7.949-7.862a.82.82 0 0 1 .075-.066c1.084-.84 2.361-1.215 4.143-1.215h9.13c2.88 0 5.224 2.319 5.224 5.168v46.618c0 2.248-1.848 4.076-4.12 4.076"/>
    </g>
</svg>
