<svg xmlns="http://www.w3.org/2000/svg" width="126" height="79" viewBox="0 0 126 79">
    <g fill="none" fill-rule="evenodd">
        <path fill="#F8A01B" d="M72.405 56.698h28.684V47.9H72.405zM72.405 65.8h28.684v-8.798H72.405z"/>
        <path fill="#000" d="M47.388 53.21H39.5a.91.91 0 1 1 0-1.82h7.888a.91.91 0 1 1 0 1.82M90.692 51.39h-7.889a.91.91 0 1 0 0 1.82h7.889a.91.91 0 1 0 0-1.82M82.803 62.312h7.889a.91.91 0 1 0 0-1.82h-7.889a.91.91 0 1 0 0 1.82"/>
        <path fill="#000" d="M73.316 76.976h27.002V66.71H73.316v10.265zm-1.82 0V66.053c0-.043.002-.085.008-.126a.919.919 0 0 1-.009-.127v-8.798c0-.052.007-.102.015-.152a.952.952 0 0 1-.015-.152v-8.242H25.682v28.52h45.813zm1.82-12.086h26.863v-6.978H73.316v6.978zm0-9.102h26.863V48.81H73.316v6.978zM16.58 46.636h92.84v-1.82H16.58v1.82zM35.19 6.884v36.111h43.777v-2.764H68.422a2.087 2.087 0 0 1-2.085-2.084V19.29c0-1.15.935-2.085 2.085-2.085h22.39V6.884a4.836 4.836 0 0 0-4.831-4.83H40.019a4.836 4.836 0 0 0-4.83 4.83zM99.75 19.027H68.42a.264.264 0 0 0-.263.264V33.05h31.857V19.29a.264.264 0 0 0-.264-.263zM80.786 42.995h5.998v-2.764h-5.998v2.764zm7.818 0h2.207v-2.764h-2.207v2.764zm11.41-4.848V34.87H68.159v3.277c0 .145.118.264.264.264H99.75a.264.264 0 0 0 .264-.264zm24.576 38.829a.91.91 0 1 1 0 1.82H1.41a.91.91 0 1 1 0-1.82h22.452v-28.52H15.67a.91.91 0 0 1-.91-.91v-3.64a.91.91 0 0 1 .91-.91h17.698V6.883A6.659 6.659 0 0 1 40.02.233h45.962a6.659 6.659 0 0 1 6.65 6.651v10.322h7.12c1.149 0 2.084.935 2.084 2.085v18.856c0 1.15-.935 2.084-2.084 2.084h-7.12v2.764h17.7a.91.91 0 0 1 .91.91v3.641a.91.91 0 0 1-.91.91h-8.193v28.52h22.452z"/>
        <path fill="#000" d="M84.086 37.602c.498 0 .902-.385.902-.86s-.404-.86-.902-.86-.902.385-.902.86.404.86.902.86M40.852 54.22a2.126 2.126 0 0 0-2.124 2.125v13.653c0 1.17.953 2.123 2.124 2.123a2.126 2.126 0 0 0 2.124-2.123V56.345a2.126 2.126 0 0 0-2.124-2.124m0 19.72a3.949 3.949 0 0 1-3.944-3.943V56.345a3.949 3.949 0 0 1 3.944-3.945 3.949 3.949 0 0 1 3.944 3.945v13.653a3.949 3.949 0 0 1-3.944 3.944"/>
        <path fill="#FFF" d="M75.743 38.14H65.95l-8.605-8.605c-1.02-.8-2.234-1.103-3.81-1.103H42.73a4.61 4.61 0 0 0-4.61 4.61v22.696h3.671c-.01.101-.03.2-.03.303a3.034 3.034 0 0 0 3.034 3.034h17.597v15.17a3.034 3.034 0 1 0 6.068 0V56.041a3.034 3.034 0 0 0-3.034-3.034h-7.281v-14.95l4.744 4.745c.512.512 1.206.8 1.93.8h10.923a2.73 2.73 0 0 0 0-5.461"/>
        <path fill="#000" d="M39.032 54.828h2.76a.91.91 0 0 1 .906 1l-.015.131c-.005.028-.01.056-.01.084 0 1.17.952 2.122 2.123 2.122h17.597a.91.91 0 0 1 .91.91v15.17c0 1.171.953 2.124 2.124 2.124a2.126 2.126 0 0 0 2.124-2.124V56.041a2.126 2.126 0 0 0-2.124-2.124h-7.281a.91.91 0 0 1-.91-.91v-14.95a.91.91 0 0 1 1.554-.643l4.743 4.744c.344.344.8.534 1.287.534h10.923c1.003 0 1.82-.817 1.82-1.82 0-1.004-.817-1.821-1.82-1.821H65.95a.91.91 0 0 1-.643-.266l-8.565-8.565c-.795-.607-1.788-.878-3.207-.878H42.73c-2.04 0-3.7 1.66-3.7 3.7v21.786zm26.395 23.361a3.949 3.949 0 0 1-3.944-3.944v-14.26H44.796a3.95 3.95 0 0 1-3.897-3.337H38.12a.91.91 0 0 1-.91-.91V33.042a5.526 5.526 0 0 1 5.52-5.52h10.805c1.854 0 3.243.412 4.371 1.297a.925.925 0 0 1 .082.073l8.34 8.339h9.414a3.644 3.644 0 0 1 3.64 3.64 3.644 3.644 0 0 1-3.64 3.641H64.82c-.973 0-1.887-.38-2.574-1.067l-3.19-3.19v11.842h6.371a3.949 3.949 0 0 1 3.944 3.944v18.204a3.949 3.949 0 0 1-3.944 3.944z"/>
        <path fill="#F8A01B" d="M62.221 58.89h-7.543V36.972a4.898 4.898 0 0 0-4.898-4.899H39.465a4.899 4.899 0 0 0-4.9 4.899V61.53a2.39 2.39 0 0 0 2.39 2.389h25.266a2.514 2.514 0 0 0 0-5.029"/>
        <path fill="#000" d="M49.443 64.829v7.677h10.63a.91.91 0 0 1 .91.91v3.911a.91.91 0 1 1-1.82 0v-3h-9.72v3.559a.91.91 0 1 1-1.82 0v-3.56H37.2v3.001a.91.91 0 1 1-1.82 0v-3.91a.91.91 0 0 1 .91-.91h11.333v-7.678H36.955c-1.82 0-3.3-1.48-3.3-3.3V36.972a5.816 5.816 0 0 1 5.81-5.81H49.78a5.816 5.816 0 0 1 5.809 5.81V57.98h6.632a3.428 3.428 0 0 1 3.425 3.424 3.429 3.429 0 0 1-3.425 3.425H49.443zm-9.978-31.846c-2.2 0-3.99 1.79-3.99 3.99v24.556c0 .816.665 1.48 1.48 1.48h25.266c.885 0 1.604-.72 1.604-1.605 0-.884-.72-1.604-1.604-1.604h-7.543a.91.91 0 0 1-.91-.91V36.972c0-2.2-1.79-3.989-3.988-3.989H39.465zM47.83 16.903a3.949 3.949 0 0 0-3.944 3.944 3.949 3.949 0 0 0 3.944 3.944 3.949 3.949 0 0 0 3.944-3.944 3.949 3.949 0 0 0-3.944-3.944m0 9.709a5.771 5.771 0 0 1-5.764-5.765 5.771 5.771 0 0 1 5.764-5.764 5.771 5.771 0 0 1 5.765 5.764 5.771 5.771 0 0 1-5.765 5.765"/>
        <path fill="#F8A01B" d="M24.165 43.905h6.068V35.41h-6.068z"/>
        <path fill="#000" d="M25.075 42.995h4.248V36.32h-4.248v6.675zm5.158 1.82h-6.068a.91.91 0 0 1-.91-.91V35.41a.91.91 0 0 1 .91-.91h6.068a.91.91 0 0 1 .91.91v8.495a.91.91 0 0 1-.91.91z"/>
        <path fill="#000" d="M25.985 36.32a.91.91 0 0 1-.875-.66l-1.213-4.247a.91.91 0 1 1 1.75-.5l1.213 4.247a.91.91 0 0 1-.875 1.16M28.413 36.32a.91.91 0 0 1-.876-1.16l1.214-4.248a.91.91 0 0 1 1.75.5l-1.213 4.248a.91.91 0 0 1-.875.66"/>
    </g>
</svg>
