<svg xmlns="http://www.w3.org/2000/svg" width="116" height="79" viewBox="0 0 116 79">
    <g fill="none" fill-rule="evenodd">
        <path fill="#FFF" d="M33.33 51.474h50.215V48.27H33.331z"/>
        <path fill="#000" d="M70.413 73.591a1.981 1.981 0 0 0 .909 2.645c.271.132.56.199.86.199a1.96 1.96 0 0 0 1.774-1.112l9.064-18.88a1.98 1.98 0 0 0-.91-2.644 1.975 1.975 0 0 0-2.634.912m-7.294 23.417a3.625 3.625 0 0 1-1.6-.37 3.677 3.677 0 0 1-1.69-4.904l9.064-18.881a3.666 3.666 0 0 1 4.894-1.696 3.677 3.677 0 0 1 1.69 4.903l-9.063 18.881a3.638 3.638 0 0 1-3.295 2.067"/>
        <path fill="#F8A01B" d="M29.487 48.275h57.277v-3.386H29.487zM104.355 63.326H84.824c-1.2 0-2.173-.975-2.173-2.178 0-1.203.973-2.178 2.173-2.178h21.667v2.215c0 1.182-.956 2.141-2.136 2.141M102.144 44.382v-8.784c0-1.706 1.38-3.09 3.084-3.09h1.263v14.964h-1.263a3.088 3.088 0 0 1-3.084-3.09M11.646 63.326h19.53c1.2 0 2.173-.975 2.173-2.178a2.176 2.176 0 0 0-2.173-2.178H9.51v2.215c0 1.182.956 2.141 2.137 2.141M13.856 44.382v-8.784c0-1.706-1.38-3.09-3.084-3.09H9.51v14.964h1.263a3.088 3.088 0 0 0 3.084-3.09"/>
        <path fill="#000" d="M84.474 77.025l2.507-12.852h15.351l2.507 12.852H84.474zm.35-14.545a1.332 1.332 0 0 1 0-2.663h20.823v1.368c0 .714-.58 1.295-1.292 1.295H84.824zm-71.156 1.693H29.02l2.506 12.852H11.162l2.506-12.852zm-2.022-1.693a1.295 1.295 0 0 1-1.292-1.294v-1.37h20.822a1.332 1.332 0 0 1 0 2.664H11.645zm-1.292-29.125h.418a2.244 2.244 0 0 1 2.24 2.244v8.783a2.244 2.244 0 0 1-2.24 2.243h-.418v-13.27zm94.874 13.27a2.244 2.244 0 0 1-2.24-2.243v-8.783a2.244 2.244 0 0 1 2.24-2.244h.419v13.27h-.42zm9.927 30.4h-8.602c-.002-.021-.001-.043-.006-.064l-2.494-12.788h.302c1.585 0 2.873-1.25 2.964-2.817a.85.85 0 0 0 .017-.17V32.508a.845.845 0 0 0-.845-.846h-1.263A3.937 3.937 0 0 0 101.3 35.6v8.783a3.937 3.937 0 0 0 3.928 3.936h.419v9.806H84.824a3.024 3.024 0 0 0 0 6.049h.437L82.766 76.96c-.005.021-.003.043-.006.064H33.24c-.002-.021 0-.043-.005-.064L30.74 64.173h.436a3.025 3.025 0 0 0 0-6.05H10.354v-9.805h.418a3.937 3.937 0 0 0 3.929-3.936v-8.783a3.937 3.937 0 0 0-3.929-3.937H9.51a.845.845 0 0 0-.844.846v28.677c0 .059.006.116.016.17.091 1.567 1.38 2.818 2.965 2.818h.301L9.453 76.96c-.004.021-.003.043-.006.064H.845a.846.846 0 0 0 0 1.693h114.31a.846.846 0 0 0 0-1.693z"/>
        <path fill="#000" d="M85.92 47.428h-2.342l-.033-.003H33.331l-.033.003H30.33v-1.693H85.92v1.693zm-51.745 3.199H82.7v-1.506H34.175v1.506zm21.576-14.415H60.5v7.544h-3.146v-3.694a.564.564 0 1 0-1.126 0v3.694h-.477v-7.544zm.693-3.996a1.762 1.762 0 0 1-.515-.759c.838.181 1.34.735 1.606 1.144-.444-.024-.81-.152-1.091-.385zm0-2.74a1.76 1.76 0 0 1-.515-.758c.838.181 1.34.735 1.606 1.144-.444-.024-.81-.153-1.091-.386zm3.878-.758c-.087.241-.242.533-.515.758-.28.232-.646.361-1.088.385.268-.408.772-.96 1.603-1.143zm0 2.74c-.087.24-.242.532-.515.758-.28.232-.646.36-1.088.385.268-.408.772-.961 1.603-1.143zm26.442 12.584H62.19v-8.676a.845.845 0 0 0-.844-.846h-2.853v-1.185c.024 0 .05.004.073.004.69 0 1.267-.189 1.716-.564.8-.667.877-1.676.88-1.719a.366.366 0 0 0-.101-.279.385.385 0 0 0-.276-.112 3.166 3.166 0 0 0-2.292 1.039v-1.11c.024.001.05.005.073.005.69 0 1.267-.189 1.716-.564.8-.667.877-1.675.88-1.718a.368.368 0 0 0-.101-.28.394.394 0 0 0-.276-.112c-1.431.047-2.248.886-2.658 1.505-.411-.619-1.228-1.458-2.66-1.505a.395.395 0 0 0-.274.113.367.367 0 0 0-.102.28c.003.042.08 1.05.88 1.717.45.375 1.025.564 1.716.564.024 0 .05-.004.073-.004v1.109a3.166 3.166 0 0 0-2.292-1.04.365.365 0 0 0-.377.392c.003.043.08 1.052.88 1.719.45.375 1.025.564 1.716.564.024 0 .05-.004.073-.004v1.185h-2.852a.845.845 0 0 0-.845.846v8.676H29.487a.845.845 0 0 0-.845.847v3.386c0 .467.379.846.845.846h2.999v2.352c0 .468.378.847.845.847h3.713v24.648a.846.846 0 1 0 1.69 0V52.32H78.24v24.648a.846.846 0 1 0 1.69 0V52.32h3.614c.466 0 .845-.38.845-.847v-2.352h2.374a.845.845 0 0 0 .845-.846v-3.386a.845.845 0 0 0-.845-.847zM39.825 19.186h36.602V1.693H39.825v17.493zM77.27 0h-38.29a.845.845 0 0 0-.845.846v19.186c0 .468.378.847.844.847h38.291a.845.845 0 0 0 .845-.847V.846A.845.845 0 0 0 77.271 0z"/>
        <path fill="#000" d="M73.33 4.796v11.286h-8.391A13.02 13.02 0 0 0 53.167 8.63c-4.039 0-7.803 1.896-10.245 4.999V4.796H73.33zM43.296 16.082c2.005-3.528 5.78-5.759 9.871-5.759a11.33 11.33 0 0 1 9.869 5.76h-19.74zm-1.219 1.693h32.098a.845.845 0 0 0 .844-.846V3.95a.845.845 0 0 0-.845-.846H42.077a.845.845 0 0 0-.845.846V16.929c0 .467.379.846.845.846z"/>
        <path fill="#000" d="M69.002 8.145a1.199 1.199 0 0 1 0 2.397 1.199 1.199 0 0 1 0-2.397m0 4.09a2.892 2.892 0 0 0 0-5.783 2.892 2.892 0 0 0 0 5.783"/>
        <path fill="#FFF" d="M90.941 38.04v14.722h-10.9a2.822 2.822 0 0 0-2.803 3.087L78.86 74.16a2.818 2.818 0 0 0 3.067 2.544 2.819 2.819 0 0 0 2.538-3.073l-1.333-15.226H98.67a3.386 3.386 0 0 0 3.382-3.388V38.039a4.574 4.574 0 0 0-4.57-4.578"/>
        <path fill="#000" d="M96.763 22.455a3.668 3.668 0 0 0 0 7.335 3.668 3.668 0 0 0 0-7.335zm0 9.028c-2.95 0-5.35-2.405-5.35-5.36 0-2.956 2.4-5.361 5.35-5.361 2.95 0 5.35 2.405 5.35 5.36 0 2.956-2.4 5.361-5.35 5.361zm4.443 23.534V38.04a3.732 3.732 0 0 0-3.724-3.733c-.026 0-.051-.005-.076-.007-.022-.002-.043 0-.065-.004-.33-.055-1.436.122-2.388.658l-7.463 4.618a.846.846 0 0 1-.46.136H75.579a1.975 1.975 0 0 0 0 3.95h12.178c.332 0 .661-.085.952-.245l8.496-5.443a.842.842 0 0 1 1.166.257.848.848 0 0 1-.257 1.17l-6.327 4.051v9.314a.845.845 0 0 1-.845.847H80.04a1.974 1.974 0 0 0-1.962 2.16l1.624 18.317a1.956 1.956 0 0 0 2.144 1.775c.527-.049 1-.3 1.336-.706.335-.406.493-.92.443-1.445l-1.333-15.23a.849.849 0 0 1 .841-.921H98.67c1.399 0 2.537-1.14 2.537-2.542zM69.844 37.21c.2 1.563.954 2.97 2.108 4.004a3.665 3.665 0 0 1 3.626-3.199h7.02a6.43 6.43 0 0 0 .162-.805H69.844zm27.654-4.594c2.978.009 5.397 2.438 5.397 5.424v16.977a4.236 4.236 0 0 1-4.226 4.235H84.055l1.253 14.304a3.65 3.65 0 0 1-.825 2.678 3.634 3.634 0 0 1-2.823 1.33 3.646 3.646 0 0 1-3.64-3.324l-1.624-18.316a3.663 3.663 0 0 1 3.644-4.008h10.056V44.53l-.525.337a3.699 3.699 0 0 1-1.815.484H75.578a3.657 3.657 0 0 1-3.094-1.718 8.163 8.163 0 0 1-4.382-7.27c0-.467.378-.846.844-.846h10.335l2.46-5.774a.844.844 0 1 1 1.554.665l-2.177 5.11h2.542c.466 0 .844.378.844.846 0 .557-.06 1.11-.17 1.651h2.448l.498-.322 6.817-4.198c1.1-.62 2.515-.978 3.4-.88z"/>
    </g>
</svg>
